<?xml version="1.0" encoding="utf-8"?><svg xmlns="http://www.w3.org/2000/svg" xmlns:xlink="http://www.w3.org/1999/xlink"><symbol viewBox="0 0 512 512" id="bank" xmlns="http://www.w3.org/2000/svg"><path clip-rule="evenodd" d="M100.27 348.425v90.819h22.936c3.383 0 6.176 2.073 6.176 4.614v29.085h81.475v-29.085c0-2.541 2.793-4.614 6.216-4.614h22.936v-90.819h-22.936c-3.423 0-6.216-2.073-6.216-4.585v-29.115h-81.475v29.115c0 2.511-2.793 4.585-6.176 4.585zm168.455 0v90.819h24c3.582 0 6.504 2.073 6.504 4.614v29.085h85.257v-29.085c0-2.541 2.923-4.614 6.504-4.614h24v-90.819h-24c-3.582 0-6.504-2.073-6.504-4.585v-29.115h-85.257v29.115c0 2.511-2.923 4.585-6.504 4.585zM34.732 151.631v131.546H477.28V151.631L255.991 23.872z" fill-rule="evenodd"/><path clip-rule="evenodd" d="M2.698 167.313c5.577 9.666 18.017 12.995 27.683 7.417l4.351-2.511 221.259-127.76 221.288 127.76 4.351 2.511c9.636 5.578 22.105 2.249 27.654-7.417 5.577-9.637 2.249-22.106-7.417-27.684L267.117 4.102c-3.212-1.869-7.154-2.774-11.126-2.774-3.942 0-7.914.905-11.126 2.774L10.115 139.629c-9.636 5.578-12.994 18.047-7.417 27.684zM393.734 332.802h67.981v122.065h-67.981zm-171.733 0h67.981v122.065h-67.981zm-171.734 0h68.01v122.065h-68.01z" fill-rule="evenodd"/><path clip-rule="evenodd" d="M28.658 472.943l49.807 18.865 61.421-18.865v-29.085c0-2.541-2.073-4.614-4.585-4.614H33.243c-2.511 0-4.585 2.073-4.585 4.614zm343.438 0l60.065 18.865 51.192-18.865v-29.085a4.623 4.623 0 00-4.614-4.614H376.71a4.624 4.624 0 00-4.614 4.614zm-171.734 0l55.643 13.474 55.614-13.474v-29.085a4.623 4.623 0 00-4.614-4.614H204.976a4.623 4.623 0 00-4.614 4.614z" fill-rule="evenodd"/><path clip-rule="evenodd" d="M4.742 510.672h502.527c2.599 0 4.731-2.132 4.731-4.731v-28.268c0-2.599-2.132-4.731-4.731-4.731H4.742c-2.599 0-4.731 2.132-4.731 4.731v28.268c0 2.6 2.132 4.731 4.731 4.731zM232.396 114.866c0 13.667 11.067 24.734 24.734 24.734 13.637 0 24.734-11.068 24.734-24.734s-11.097-24.734-24.734-24.734c-13.666-.001-24.734 11.067-24.734 24.734z" fill-rule="evenodd"/><path clip-rule="evenodd" d="M255.991 44.459L34.732 172.219v28.735l221.259-127.76 221.289 127.76v-28.735z" fill-rule="evenodd"/><path clip-rule="evenodd" d="M257.13 90.131c-13.666 0-24.734 11.068-24.734 24.734 0 2.833.467 5.519 1.343 8.06 3.65-9.082 12.557-15.477 22.923-15.477 10.834 0 20.061 6.979 23.39 16.674a24.439 24.439 0 001.811-9.257c.001-13.666-11.096-24.734-24.733-24.734zM50.267 348.425h68.01v24.705h-68.01zm171.734 0h67.981v24.705h-67.981zm171.733 0h67.981v24.705h-67.981zM50.267 348.425h85.034c2.511 0 4.585-2.073 4.585-4.585v-35.296H28.658v35.296c0 2.511 2.073 4.585 4.585 4.585zm171.734 0h85.005c2.541 0 4.614-2.073 4.614-4.585v-35.296H200.362v35.296c0 2.511 2.073 4.585 4.614 4.585zm154.709 0h102.029c2.54 0 4.614-2.073 4.614-4.585v-35.296H372.096v35.296c0 2.512 2.073 4.585 4.614 4.585z" fill-rule="evenodd"/><path clip-rule="evenodd" d="M28.658 314.726h111.228v18.076H28.658zm171.704 0h111.257v18.076H200.362zm171.734 0h111.257v18.076H372.096zM28.658 314.726h478.611c2.599 0 4.731-2.132 4.731-4.731v-28.268c0-2.599-2.132-4.731-4.731-4.731H4.742c-2.599 0-4.731 2.132-4.731 4.731v28.268c0 2.599 2.132 4.731 4.731 4.731z" fill-rule="evenodd"/><path d="M162.798 203.723a21.381 21.381 0 003.366-11.511c0-11.873-9.66-21.533-21.533-21.533h-17.429a7.725 7.725 0 00-7.726 7.726v60.002c0 2.055.819 4.026 2.276 5.475a7.723 7.723 0 005.451 2.251h.034s16.022-.071 20.439-.071c13.165 0 23.876-10.711 23.876-23.877-.001-7.431-3.414-14.079-8.754-18.462zm-18.167-17.591c3.353 0 6.08 2.727 6.08 6.08s-2.727 6.08-6.08 6.08c-1.275 0-9.702.016-9.702.016v-12.176zm3.044 44.477c-2.351 0-7.98.02-12.746.039v-16.875c1.139-.004 12.746-.013 12.746-.013 4.645 0 8.424 3.779 8.424 8.425 0 4.645-3.779 8.424-8.424 8.424zm77.492-54.089a9.054 9.054 0 00-8.484-5.841h-.005a9.056 9.056 0 00-8.474 5.822l-22.53 59.156a7.727 7.727 0 0014.441 5.5l3.716-9.757h25.534l3.674 9.735a7.73 7.73 0 007.229 5.001 7.727 7.727 0 007.227-10.456zm-15.453 39.427l6.94-18.221 6.877 18.221zm103.565-45.268l-.076.001a7.726 7.726 0 00-7.652 7.8l.347 35.827-27.747-40.18a7.728 7.728 0 00-14.085 4.39v59.889a7.726 7.726 0 1015.452 0v-35.105l26.411 38.245c2.26 3.267 6.037 4.657 9.619 3.538 3.654-1.141 6.015-4.556 6.015-8.775l-.56-57.979a7.726 7.726 0 00-7.724-7.651zm78.655 62.168l-26.988-26.037 24.695-22.699a7.727 7.727 0 10-10.457-11.377l-19.725 18.131v-13.21a7.726 7.726 0 10-15.452 0v60.752a7.726 7.726 0 1015.452 0v-15.42l21.746 20.981a7.698 7.698 0 005.363 2.166c2.024 0 4.045-.79 5.561-2.362a7.725 7.725 0 00-.195-10.925z"/></symbol><symbol viewBox="0 0 490.278 490.278" id="calculator" xmlns="http://www.w3.org/2000/svg"><path d="M86.15 0h317.978c10.381 0 18.796 8.415 18.796 18.796v452.686c0 10.381-8.415 18.796-18.796 18.796H86.15c-10.381 0-18.796-8.415-18.796-18.796V18.796C67.354 8.415 75.769 0 86.15 0z"/><path d="M97.373 33.386h295.526v110.655H97.373zM103.115 183.766h35.507a5.753 5.753 0 015.753 5.753v35.507a5.753 5.753 0 01-5.753 5.753h-35.507a5.753 5.753 0 01-5.753-5.753v-35.507a5.753 5.753 0 015.753-5.753zm82.845 0h35.507a5.753 5.753 0 015.753 5.753v35.507a5.753 5.753 0 01-5.753 5.753H185.96a5.753 5.753 0 01-5.753-5.753v-35.507a5.753 5.753 0 015.753-5.753zm82.84 0h35.507a5.753 5.753 0 015.753 5.753v35.507a5.753 5.753 0 01-5.753 5.753H268.8a5.753 5.753 0 01-5.753-5.753v-35.507a5.752 5.752 0 015.753-5.753zM351.639 183.766h35.507a5.753 5.753 0 015.753 5.753v35.507a5.753 5.753 0 01-5.753 5.753h-35.507a5.753 5.753 0 01-5.753-5.753v-35.507a5.752 5.752 0 015.753-5.753zM103.115 258.17h35.507a5.753 5.753 0 015.753 5.753v35.507a5.753 5.753 0 01-5.753 5.753h-35.507a5.753 5.753 0 01-5.753-5.753v-35.507a5.753 5.753 0 015.753-5.753zm82.845 0h35.507a5.753 5.753 0 015.753 5.753v35.507a5.753 5.753 0 01-5.753 5.753H185.96a5.753 5.753 0 01-5.753-5.753v-35.507a5.753 5.753 0 015.753-5.753zm82.84 0h35.507a5.753 5.753 0 015.753 5.753v35.507a5.753 5.753 0 01-5.753 5.753H268.8a5.753 5.753 0 01-5.753-5.753v-35.507a5.752 5.752 0 015.753-5.753zM351.639 258.17h35.507a5.753 5.753 0 015.753 5.753v35.507a5.753 5.753 0 01-5.753 5.753h-35.507a5.753 5.753 0 01-5.753-5.753v-35.507a5.752 5.752 0 015.753-5.753zM103.115 332.574h35.507a5.753 5.753 0 015.753 5.753v35.507a5.753 5.753 0 01-5.753 5.753h-35.507a5.753 5.753 0 01-5.753-5.753v-35.507a5.753 5.753 0 015.753-5.753zm82.845 0h35.507a5.753 5.753 0 015.753 5.753v35.507a5.753 5.753 0 01-5.753 5.753H185.96a5.753 5.753 0 01-5.753-5.753v-35.507a5.753 5.753 0 015.753-5.753zm82.84 0h35.507a5.753 5.753 0 015.753 5.753v35.507a5.753 5.753 0 01-5.753 5.753H268.8a5.753 5.753 0 01-5.753-5.753v-35.507a5.752 5.752 0 015.753-5.753zM351.639 332.574h35.507a5.753 5.753 0 015.753 5.753v109.911a5.753 5.753 0 01-5.753 5.753h-35.507a5.753 5.753 0 01-5.753-5.753v-109.91a5.752 5.752 0 015.753-5.754zM103.115 406.978h35.507a5.753 5.753 0 015.753 5.753v35.507a5.753 5.753 0 01-5.753 5.753h-35.507a5.753 5.753 0 01-5.753-5.753v-35.507a5.753 5.753 0 015.753-5.753zm82.845 0h35.507a5.753 5.753 0 015.753 5.753v35.507a5.753 5.753 0 01-5.753 5.753H185.96a5.753 5.753 0 01-5.753-5.753v-35.507a5.753 5.753 0 015.753-5.753zm82.84 0h35.507a5.753 5.753 0 015.753 5.753v35.507a5.753 5.753 0 01-5.753 5.753H268.8a5.753 5.753 0 01-5.753-5.753v-35.507a5.752 5.752 0 015.753-5.753z"/></symbol><symbol viewBox="0 0 360 360" id="check" xmlns="http://www.w3.org/2000/svg"><path d="M303.118 0H56.882C25.516 0 0 25.516 0 56.882v246.236C0 334.484 25.516 360 56.882 360h246.236C334.484 360 360 334.484 360 303.118V56.882C360 25.516 334.484 0 303.118 0zm18.96 303.118c0 10.454-8.506 18.96-18.959 18.96H56.882c-10.454 0-18.959-8.506-18.959-18.96V56.882c0-10.454 8.506-18.959 18.959-18.959h246.236c10.454 0 18.959 8.506 18.959 18.959v246.236z"/><path d="M249.844 106.585c-6.116 0-11.864 2.383-16.19 6.71l-84.719 84.857-22.58-22.578a22.737 22.737 0 00-16.185-6.706 22.745 22.745 0 00-16.187 6.705 22.738 22.738 0 00-6.703 16.185c0 6.114 2.38 11.862 6.703 16.184l38.77 38.77a22.738 22.738 0 0016.186 6.706c6.112 0 11.862-2.383 16.19-6.71L266.03 145.662c8.923-8.926 8.922-23.448 0-32.374a22.745 22.745 0 00-16.186-6.703z"/></symbol><symbol viewBox="0 -46 417.813 417" id="check-mini" xmlns="http://www.w3.org/2000/svg"><path d="M159.988 318.582c-3.988 4.012-9.43 6.25-15.082 6.25s-11.094-2.238-15.082-6.25L9.375 198.113c-12.5-12.5-12.5-32.77 0-45.246l15.082-15.086c12.504-12.5 32.75-12.5 45.25 0l75.2 75.203L348.104 9.781c12.504-12.5 32.77-12.5 45.25 0l15.082 15.086c12.5 12.5 12.5 32.766 0 45.246zm0 0"/></symbol><symbol viewBox="0 0 512 512" id="credit-card" xmlns="http://www.w3.org/2000/svg"><path d="M512 121v195c0 24.901-20.099 45-45 45H105c-24.901 0-45-20.099-45-45V121l30-30h392l30 30z"/><path d="M512 121v195c0 24.901-20.099 45-45 45H286V91h196l30 30z"/><path d="M512 76v45H60V76c0-24.901 20.099-45 45-45h362c24.901 0 45 20.099 45 45zM452 196v15l-30 30H30L0 211v-15c0-24.901 20.099-45 45-45h362c24.901 0 45 20.099 45 45z"/><path d="M452 196v15l-30 30H226v-90h181c24.901 0 45 20.099 45 45zM512 76v45H286V31h181c24.901 0 45 20.099 45 45z"/><path d="M452 211v60l-30 30H30L0 271v-60z"/><path d="M452 211v60l-30 30H226v-90z"/><path d="M452 271v165c0 24.901-20.099 45-45 45H45c-24.901 0-45-20.099-45-45V271h452z"/><path d="M452 271v165c0 24.901-20.099 45-45 45H226V271h226zM105 421c-24.814 0-45-20.186-45-45s20.186-45 45-45 45 20.186 45 45-20.186 45-45 45z"/><path d="M165 421c-24.814 0-45-20.186-45-45s20.186-45 45-45 45 20.186 45 45-20.186 45-45 45zM377 361H256c-8.291 0-15-6.709-15-15s6.709-15 15-15h121c8.291 0 15 6.709 15 15s-6.709 15-15 15zm0 60H256c-8.291 0-15-6.709-15-15s6.709-15 15-15h121c8.291 0 15 6.709 15 15s-6.709 15-15 15z"/></symbol><symbol viewBox="0 0 432.858 432.858" id="exchange" xmlns="http://www.w3.org/2000/svg"><circle cx="114.029" cy="108.5" r="95.573"/><path d="M114.029 210.906c-56.463 0-102.4-45.933-102.4-102.4s45.937-102.4 102.4-102.4 102.4 45.933 102.4 102.4-45.936 102.4-102.4 102.4zm0-191.146c-48.937 0-88.747 39.813-88.747 88.747s39.81 88.747 88.747 88.747 88.747-39.813 88.747-88.747-39.81-88.747-88.747-88.747z"/><circle cx="114.029" cy="108.5" r="68.267"/><path d="M114.029 183.6c-41.407 0-75.093-33.686-75.093-75.093s33.686-75.093 75.093-75.093 75.093 33.686 75.093 75.093-33.686 75.093-75.093 75.093zm0-136.534c-33.877 0-61.44 27.559-61.44 61.44s27.563 61.44 61.44 61.44 61.44-27.559 61.44-61.44-27.562-61.44-61.44-61.44z"/><path d="M132.05 139.465c-3.173 2.147-8.497 4.301-15.256 4.301-8.293 0-15.667-3.173-20.784-9.114-3.893-4.301-6.453-10.24-7.373-17.613h-6.352v-5.014h5.837v-1.539c0-1.64.104-3.173.207-4.606h-6.043v-5.12h6.76c1.227-7.166 4.301-13.107 8.397-17.307 5.221-5.427 11.877-8.499 20.273-8.499 6.04 0 10.75 1.746 13.617 3.28l-2.046 6.76c-2.56-1.539-6.861-2.867-11.467-2.867-5.53 0-10.037 1.94-13.517 5.627-3.074 2.973-5.12 7.579-6.144 13.007h28.566v5.12H97.236c-.104 1.333-.203 2.867-.203 4.301v1.847h29.693v5.014H97.749c.817 5.939 2.867 10.341 5.63 13.413 3.791 3.994 8.911 5.939 14.44 5.939 5.427 0 10.136-2.046 12.489-3.379l1.742 6.449zM107.203 40.24h13.653v13.653h-13.653zm0 122.873h13.653v13.653h-13.653zm54.613-61.44h20.48v13.653h-20.48zm-116.053 0h20.48v13.653h-20.48z"/><circle cx="318.829" cy="306.473" r="95.573"/><path d="M318.829 408.88c-56.463 0-102.4-45.933-102.4-102.4s45.937-102.4 102.4-102.4 102.4 45.933 102.4 102.4-45.936 102.4-102.4 102.4zm0-191.147c-48.937 0-88.747 39.813-88.747 88.747s39.81 88.747 88.747 88.747 88.747-39.813 88.747-88.747-39.81-88.747-88.747-88.747z"/><circle cx="318.829" cy="306.473" r="68.267"/><g><path d="M318.829 381.573c-41.407 0-75.093-33.686-75.093-75.093s33.686-75.093 75.093-75.093 75.093 33.686 75.093 75.093-33.686 75.093-75.093 75.093zm0-136.533c-33.877 0-61.44 27.559-61.44 61.44s27.563 61.44 61.44 61.44 61.44-27.559 61.44-61.44-27.562-61.44-61.44-61.44z"/><path d="M312.003 238.206h13.653v13.653h-13.653zm0 122.88h13.653v13.653h-13.653zm54.613-61.44h20.48v13.653h-20.48zm-116.053 0h20.48v13.653h-20.48zm64.65 49.774v-10.341c-5.939-.106-12.083-1.947-15.667-4.507l2.456-6.861c3.686 2.454 9.01 4.4 14.744 4.4 7.27 0 12.187-4.2 12.187-10.033 0-5.634-3.994-9.114-11.57-12.187-10.447-4.093-16.896-8.806-16.896-17.714 0-8.499 6.043-14.947 15.464-16.486V265.35h6.347v9.933c6.144.2 10.344 1.84 13.314 3.581l-2.56 6.76c-2.15-1.227-6.35-3.48-12.904-3.48-7.883 0-10.853 4.707-10.853 8.806 0 5.32 3.79 7.987 12.696 11.674 10.547 4.301 15.874 9.62 15.874 18.734 0 8.093-5.634 15.667-16.179 17.413v10.646h-6.453v.003z"/></g><g><path d="M400.749 210.906h-13.653c0-90.687-67.874-166.533-157.88-176.42l1.493-13.573c96.937 10.654 170.04 92.333 170.04 189.993zM209.603 402.053c-105.4 0-191.147-85.746-191.147-191.147h13.653c0 97.874 79.623 177.493 177.493 177.493v13.654z"/><path d="M244.883 71.332l-31.597-47.393L261.163 0l6.106 12.213-34.043 17.019 23.016 34.527zm-53.518 361.526l-10.545-8.666 26.345-32.06-32.175-20.333 7.292-11.547 45.251 28.6z"/></g></symbol><symbol viewBox="0 0 10 19" id="facebook" xmlns="http://www.w3.org/2000/svg"><path fill-rule="evenodd" d="M8.675.212H6.848S3.036-.077 3.036 3.974v2.783H.448L.455 8.94h2.58l.002 9.583H5.63V8.94h2.856l.61-2.183H5.644V3.892s-.028-1.063 1.207-1.063h1.812L8.675.212z"/></symbol><symbol viewBox="0 0 512 512" id="fire" xmlns="http://www.w3.org/2000/svg"><path d="M446.906 299.769c-5.865-76.359-41.417-124.21-72.781-166.436C345.083 94.241 320 60.483 320 10.685c0-4-2.24-7.656-5.792-9.489-3.563-1.844-7.844-1.542-11.083.812-47.104 33.706-86.406 90.515-100.135 144.719-9.531 37.737-10.792 80.161-10.969 108.18-43.5-9.291-53.354-74.359-53.458-75.068a10.72 10.72 0 00-5.552-7.916c-3.031-1.583-6.594-1.698-9.667-.177-2.281 1.104-55.99 28.394-59.115 137.355-.219 3.625-.229 7.261-.229 10.896 0 105.857 86.135 191.987 192 191.987.146.01.302.031.427 0h.135C362.167 511.681 448 425.667 448 319.997c0-5.323-1.094-20.228-1.094-20.228zM256 490.652c-35.292 0-64-30.581-64-68.172 0-1.281-.01-2.573.083-4.156.427-15.853 3.438-26.675 6.74-33.873 6.188 13.291 17.25 25.509 35.219 25.509a10.66 10.66 0 0010.667-10.666c0-15.186.313-32.706 4.094-48.518 3.365-14.02 11.406-28.936 21.594-40.893 4.531 15.52 13.365 28.081 21.99 40.341 12.344 17.54 25.104 35.675 27.344 66.6.135 1.833.271 3.677.271 5.656-.002 37.59-28.71 68.172-64.002 68.172z"/></symbol><symbol viewBox="0 0 15 15" id="google" xmlns="http://www.w3.org/2000/svg"><path fill-rule="evenodd" d="M12.951 2.684V4.71h-.679V2.684H10.23V2.02h2.042V-.002h.679V2.02h2.045v.664h-2.045zM7.738.955c.788.442 1.206 1.354 1.206 2.36 0 .923-.52 1.666-1.255 2.231-.718.552-.854.782-.854 1.251 0 .399.857.994 1.252 1.284 1.372 1.012 1.631 1.649 1.65 2.912.025 1.682-1.731 3.147-4.546 3.147-2.47 0-4.54-1.103-4.54-2.682 0-2.384 1.714-3.154 4.184-3.154.27 0 .516-.007.771-.007-.338-.321-.611-.601-.611-1.087 0-.292.094-.568.226-.815a6.098 6.098 0 01-.412.018c-2.029 0-3.21-1.401-3.21-3.157 0-1.719 1.798-3.26 3.954-3.26h4.251l-.95.959H7.738zM5.25 9.414c-1.572 0-2.871.579-2.871 1.673 0 1.112 1.159 2.019 2.763 2.019 2.256 0 3.042-.848 3.042-1.965 0-.133-.004-.269-.051-.393-.545-1.334-2.298-1.334-2.883-1.334zm1.905-5.929C6.968 2.09 6.26 1.04 5.173 1.007c-1.087-.03-2.04.942-1.851 2.338.187 1.397 1.221 2.333 2.309 2.366 1.087.031 1.711-.829 1.524-2.226z"/></symbol><symbol viewBox="0 0 512.001 512.001" id="growth" xmlns="http://www.w3.org/2000/svg"><path d="M240.996 76.709h29.999v159.867h-29.999z"/><path d="M255.996 76.709h15v159.867h-15z"/><path d="M412.643 25.616c-1.834-1.486-45.526-36.246-97.435-22.339-28.659 7.679-47.729 26.955-59.207 43.053-11.478-16.098-30.547-35.374-59.207-43.053-51.903-13.906-95.6 20.853-97.435 22.339l-8.463 6.857 3.901 10.17c.845 2.205 21.308 54.155 73.212 68.063a96.376 96.376 0 0025.033 3.278c27.604 0 50.69-11.475 62.959-19.08 12.268 7.604 35.352 19.08 62.96 19.08 8.013 0 16.413-.968 25.033-3.278 51.904-13.908 72.367-65.858 73.212-68.063l3.901-10.17-8.464-6.857z"/><path d="M412.643 25.616c-1.834-1.486-45.526-36.246-97.435-22.339-28.659 7.679-47.729 26.955-59.207 43.053L256 94.903c12.268 7.604 35.352 19.08 62.96 19.08 8.013 0 16.413-.968 25.033-3.278 51.904-13.908 72.367-65.858 73.212-68.063l3.901-10.17-8.463-6.856zM256.001 512.001c-80.22 0-145.483-65.264-145.483-145.483s65.264-145.483 145.483-145.483 145.483 65.264 145.483 145.483-65.263 145.483-145.483 145.483z"/><path d="M256.001 512.001V221.035c80.22 0 145.483 65.264 145.483 145.483s-65.263 145.483-145.483 145.483z"/><path d="M311.212 394.607c0-25.572-16.66-34.483-43.006-41.65-18.404-5.036-28.671-7.555-28.671-16.854 0-7.555 6.006-11.43 16.854-11.43 16.467 0 34.87 11.043 36.807 13.174l13.754-26.346c-8.548-5.101-20.144-10.579-33.168-13.323v-27.972H238.22v28.973c-18.348 5.693-31.617 20.01-31.617 41.961 0 20.729 11.817 30.22 37.194 37.969 18.985 5.811 33.126 8.33 33.126 18.598 0 6.586-5.424 10.267-16.854 10.267-21.116 0-42.813-13.367-45.331-16.079l-13.949 27.702c10.661 6.98 23.902 12.115 37.429 14.838v28.395h35.562v-27.339c20.624-3.506 37.432-15.406 37.432-40.884z"/><path d="M256.389 324.673c16.467 0 34.87 11.043 36.807 13.174l13.754-26.346c-8.548-5.101-20.144-10.579-33.168-13.323v-27.972h-17.781v54.477c.131-.003.255-.01.388-.01zm11.817 28.283c-4.585-1.255-8.663-2.353-12.205-3.439v33.21c12.529 3.759 20.923 7.071 20.923 14.979 0 6.586-5.424 10.267-16.854 10.267a53.19 53.19 0 01-4.069-.161v55.017h17.781V435.49c20.623-3.505 37.43-15.406 37.43-40.884 0-25.571-16.66-34.482-43.006-41.65z"/></symbol><symbol viewBox="0 0 412.735 412.735" id="heart" xmlns="http://www.w3.org/2000/svg"><path d="M295.706 35.522a115.985 115.985 0 00-89.339 41.273 114.413 114.413 0 00-89.339-41.273C52.395 35.522 0 87.917 0 152.55c0 110.76 193.306 218.906 201.143 223.086a9.404 9.404 0 0010.449 0c7.837-4.18 201.143-110.759 201.143-223.086 0-64.633-52.396-117.028-117.029-117.028z"/></symbol><symbol viewBox="0 0 95 83" id="hexagon" xmlns="http://www.w3.org/2000/svg"><path fill-rule="evenodd" d="M25.502 79.496L3.503 41.497 25.502 3.499h43.996l21.999 37.998-21.999 37.999H25.502z"/></symbol><symbol viewBox="0 0 21 19" id="hexagon-decoration" xmlns="http://www.w3.org/2000/svg"><path fill-rule="evenodd" d="M5.25 18.997l-5.249-9.5L5.25-.002h10.5l5.249 9.499-5.249 9.5H5.25z"/></symbol><symbol viewBox="0 0 21 19" id="hexagon-decoration-red" xmlns="http://www.w3.org/2000/svg"><path fill-rule="evenodd" d="M5.25 18.996L.001 9.498 5.25-.003h10.499l5.25 9.501-5.25 9.498H5.25z"/></symbol><symbol viewBox="0 0 492 492" id="left-arrow" xmlns="http://www.w3.org/2000/svg"><path d="M198.608 246.104L382.664 62.04c5.068-5.056 7.856-11.816 7.856-19.024 0-7.212-2.788-13.968-7.856-19.032l-16.128-16.12C361.476 2.792 354.712 0 347.504 0s-13.964 2.792-19.028 7.864L109.328 227.008c-5.084 5.08-7.868 11.868-7.848 19.084-.02 7.248 2.76 14.028 7.848 19.112l218.944 218.932c5.064 5.072 11.82 7.864 19.032 7.864 7.208 0 13.964-2.792 19.032-7.864l16.124-16.12c10.492-10.492 10.492-27.572 0-38.06L198.608 246.104z"/></symbol><symbol viewBox="0 0 512 512" id="list" xmlns="http://www.w3.org/2000/svg"><g clip-rule="evenodd" fill-rule="evenodd"><path d="M267.792 473.222h145.589c3.316 0 6.01-2.692 6.01-5.982V40.536C419.391 18.143 401.249 0 378.855 0H267.792z"/><path d="M61.201 76.083l311.645 4.989c3.77.057 6.009 1.53 6.009 6.01V506.02c0 3.288-2.693 5.98-6.009 5.98H67.21c-3.316 0-6.009-2.692-6.009-5.98z"/><path d="M342.854 81.072h29.991c3.77 0 6.009 1.53 6.009 6.01V506.02c0 3.288-2.693 5.98-6.009 5.98h-29.991c3.288 0 5.981-2.692 5.981-5.98V87.082c0-4.479-2.239-6.01-5.981-6.01z"/><path d="M61.201 81.072c-22.394 0-40.536-18.143-40.536-40.536S38.807 0 61.201 0h317.654c-22.394 0-40.536 18.143-40.536 40.536 0 22.394 12.132 40.536 34.527 40.536z"/><path d="M348.835 0h30.02c-22.394 0-40.536 18.143-40.536 40.536 0 22.394 12.132 40.536 34.527 40.536h-29.991c-22.394 0-34.555-18.143-34.555-40.536S326.47 0 348.835 0zM150.38 388.38h297.414v53.349H150.38z"/><path d="M479.345 441.728h-36.567V388.38h36.567c6.604 0 11.991 5.414 11.991 12.02v29.338c-.001 6.605-5.387 11.99-11.991 11.99z"/><path d="M479.345 441.728h-25.002c6.604 0 11.99-5.386 11.99-11.991v-29.338c0-6.605-5.386-12.02-11.99-12.02h25.002c6.604 0 11.991 5.414 11.991 12.02v29.338c-.001 6.606-5.387 11.991-11.991 11.991zM108.256 418.059c-2.778-1.559-2.834-4.422 0-6.009l42.124-23.67v53.349z"/></g><path d="M102.927 287.408h51.818a7.477 7.477 0 017.484 7.483v51.847a7.476 7.476 0 01-7.484 7.483h-51.818c-4.139 0-7.512-3.345-7.512-7.483v-51.847c.001-4.137 3.374-7.483 7.512-7.483zm44.306 14.996H110.41v36.822h36.823zm-44.306-101.056h51.818c4.139 0 7.484 3.345 7.484 7.512v51.818a7.476 7.476 0 01-7.484 7.483h-51.818c-4.139 0-7.512-3.345-7.512-7.483V208.86a7.507 7.507 0 017.512-7.512zm44.306 14.995H110.41v36.823h36.823zm-44.306-101.057h51.818c4.139 0 7.484 3.374 7.484 7.513v51.817c0 4.139-3.345 7.512-7.484 7.512h-51.818c-4.139 0-7.512-3.373-7.512-7.512v-51.817c.001-4.139 3.374-7.513 7.512-7.513zm44.306 14.996H110.41v36.822h36.823zM186.153 312.666c-4.139 0-7.512-3.346-7.512-7.484 0-4.139 3.373-7.512 7.512-7.512h161.294c4.139 0 7.483 3.373 7.483 7.512s-3.345 7.484-7.483 7.484zm0-172.094c-4.139 0-7.512-3.373-7.512-7.512s3.373-7.512 7.512-7.512h161.294c4.139 0 7.483 3.373 7.483 7.512s-3.345 7.512-7.483 7.512zm0 31.267c-4.139 0-7.512-3.345-7.512-7.483 0-4.139 3.373-7.512 7.512-7.512h118.518c4.139 0 7.512 3.373 7.512 7.512s-3.373 7.483-7.512 7.483zm0 54.766c-4.139 0-7.512-3.345-7.512-7.483 0-4.139 3.373-7.512 7.512-7.512h161.294c4.139 0 7.483 3.373 7.483 7.512s-3.345 7.483-7.483 7.483zm0 31.294a7.507 7.507 0 01-7.512-7.512c0-4.139 3.373-7.483 7.512-7.483h118.518c4.139 0 7.512 3.345 7.512 7.483a7.507 7.507 0 01-7.512 7.512zm0 86.061c-4.139 0-7.512-3.373-7.512-7.512s3.373-7.483 7.512-7.483h118.518c4.139 0 7.512 3.345 7.512 7.483 0 4.139-3.373 7.512-7.512 7.512z"/><path clip-rule="evenodd" d="M412.786 388.38h29.991v53.349h-29.991z" fill-rule="evenodd"/></symbol><symbol viewBox="0 0 512 512" id="money" xmlns="http://www.w3.org/2000/svg"><path d="M488.727 325.818H23.273C10.473 325.818 0 315.345 0 302.545v-256c0-12.8 10.473-23.273 23.273-23.273h465.455c12.8 0 23.273 10.473 23.273 23.273v256c-.001 12.8-10.474 23.273-23.274 23.273z"/><path d="M430.545 232.727c-26.764 0-51.2 12.8-65.164 33.745C353.745 260.655 340.945 256 325.818 256c-40.727 0-74.473 30.255-80.291 69.818h243.2c11.636 0 20.945-8.145 23.273-19.782-4.655-40.727-39.564-73.309-81.455-73.309z"/><path d="M442.182 302.545H69.818c0-25.6-20.945-46.545-46.545-46.545V93.091c25.6 0 46.545-20.945 46.545-46.545h372.364c0 25.6 20.945 46.545 46.545 46.545V256c-25.6 0-46.545 20.945-46.545 46.545z"/><path d="M430.545 232.727c-26.764 0-51.2 12.8-65.164 33.745C353.745 260.655 340.945 256 325.818 256c-32.582 0-60.509 18.618-73.309 46.545h189.673c0-25.6 19.782-45.382 45.382-46.545-15.128-13.964-34.909-23.273-57.019-23.273z"/><ellipse cx="256" cy="174.545" rx="93.091" ry="104.727"/><circle cx="116.364" cy="174.545" r="23.273"/><circle cx="395.636" cy="174.545" r="23.273"/><path d="M267.636 162.909h-23.273c-6.982 0-11.636-4.655-11.636-11.636 0-6.982 4.655-11.636 11.636-11.636h34.909c6.982 0 11.636-4.655 11.636-11.636 0-6.982-4.655-11.636-11.636-11.636h-11.636c0-6.982-4.655-11.636-11.636-11.636-6.982 0-11.636 4.655-11.636 11.636-19.782 0-34.909 15.127-34.909 34.909s15.127 34.909 34.909 34.909h23.273c6.982 0 11.636 4.655 11.636 11.636 0 6.982-4.655 11.636-11.636 11.636h-34.909c-6.982 0-11.636 4.655-11.636 11.636 0 6.982 4.655 11.636 11.636 11.636h11.636c0 6.982 4.655 11.636 11.636 11.636 6.982 0 11.636-4.655 11.636-11.636 19.782 0 34.909-15.127 34.909-34.909s-15.127-34.909-34.909-34.909z"/><circle cx="302.545" cy="337.455" r="81.455"/><circle cx="407.273" cy="314.182" r="81.455"/><path d="M407.273 232.727c-45.382 0-81.455 36.073-81.455 81.455s36.073 81.455 81.455 81.455 81.455-36.073 81.455-81.455-36.073-81.455-81.455-81.455zm0 139.637c-32.582 0-58.182-25.6-58.182-58.182S374.691 256 407.273 256s58.182 25.6 58.182 58.182-25.6 58.182-58.182 58.182z"/><path d="M407.273 394.473c45.382 1.164 81.455-36.073 81.455-80.291h-1.164c-5.818 0-10.473 4.655-11.636 10.473-2.327 16.291-10.473 31.418-22.109 41.891-9.309 9.309-22.109 15.127-36.073 17.454a10.43 10.43 0 00-10.473 10.473zM407.273 233.891c-45.382-1.164-81.455 36.073-81.455 80.291h1.164c5.818 0 10.473-4.655 11.636-10.473 2.327-16.291 10.473-31.418 22.109-41.891 9.309-9.309 22.109-15.127 36.073-17.455a10.428 10.428 0 0010.473-10.472z"/><path d="M357.236 322.327c0-32.582 25.6-58.182 58.182-58.182 13.964 0 26.764 4.655 37.236 13.964C441.018 264.145 425.891 256 407.273 256c-32.582 0-58.182 25.6-58.182 58.182 0 18.618 8.145 33.745 20.945 44.218-8.145-9.309-12.8-22.109-12.8-36.073zM442.182 350.255c-1.164 0-2.327 0-3.491-1.164-2.327-2.327-2.327-5.818 0-8.145 6.982-6.982 10.473-17.455 10.473-26.764 0-3.491 2.327-5.818 5.818-5.818 3.491 0 5.818 2.327 5.818 5.818 0 12.8-4.655 25.6-12.8 34.909-2.327 1.164-4.655 1.164-5.818 1.164z"/><path d="M407.273 349.091c-6.982 0-11.636-4.655-11.636-11.636V290.91c0-6.982 4.655-11.636 11.636-11.636s11.636 4.655 11.636 11.636v46.545c0 6.981-4.654 11.636-11.636 11.636z"/><path d="M450.327 382.836c-8.145-29.091-29.091-52.364-55.855-62.836-4.655-26.764-22.109-50.036-44.218-64-13.964 15.127-23.273 34.909-23.273 57.018 0 45.382 36.073 81.455 81.455 81.455 15.128 1.163 29.091-3.491 41.891-11.637z"/><path d="M370.036 358.4c-8.145-10.473-13.964-23.273-13.964-37.236a56.333 56.333 0 0118.618-41.891c-2.327-3.491-4.655-5.818-6.982-8.145-11.636 10.473-18.618 25.6-18.618 43.055.001 18.617 8.146 33.744 20.946 44.217zm25.6-37.236v16.291c0 6.982 4.655 11.636 11.636 11.636s11.636-4.655 11.636-11.636v-2.327c-6.981-5.819-15.126-10.473-23.272-13.964z"/><path d="M450.327 382.836c-2.327-8.145-4.655-15.127-9.309-22.109-9.309 6.982-20.945 11.636-33.745 11.636-32.582 0-58.182-25.6-58.182-58.182 0-17.455 6.982-32.582 18.618-43.055-5.818-5.818-11.636-10.473-18.618-13.964-13.964 15.127-23.273 34.909-23.273 57.018 0 45.382 36.073 81.455 81.455 81.455 16.291.001 30.254-4.653 43.054-12.799z"/><path d="M446.836 372.364c-8.145 5.818-18.618 9.309-29.091 11.636-5.818 1.164-10.473 5.818-10.473 11.636 16.291 0 30.255-4.655 43.055-12.8l-3.491-10.472zM349.091 257.164c-13.964 15.127-23.273 34.909-23.273 57.018h1.164c5.818 0 10.473-4.655 11.636-10.473 2.327-16.291 10.473-30.255 20.945-40.727-3.49-1.164-6.981-3.491-10.472-5.818z"/><circle cx="302.545" cy="337.455" r="81.455"/><path d="M290.909 395.636c0 8.145 1.164 15.127 3.491 23.273h8.145c45.382 0 81.455-36.073 81.455-81.455 0-8.145-1.164-15.127-3.491-23.273h-8.145c-45.382.001-81.455 36.074-81.455 81.455z"/><path d="M302.545 256c-45.382 0-81.455 36.073-81.455 81.455s36.073 81.455 81.455 81.455S384 382.836 384 337.455 347.927 256 302.545 256zm0 139.636c-32.582 0-58.182-25.6-58.182-58.182s25.6-58.182 58.182-58.182 58.182 25.6 58.182 58.182-25.6 58.182-58.182 58.182z"/><path d="M302.545 417.745c45.382 1.164 81.455-36.072 81.455-80.29h-1.164c-5.818 0-10.473 4.655-11.636 10.473-2.327 16.291-10.473 31.418-22.109 41.891-9.309 9.309-22.109 15.127-36.073 17.455a10.428 10.428 0 00-10.473 10.471zM302.545 257.164c-45.382-1.164-81.455 36.073-81.455 80.291h1.164c5.818 0 10.473-4.655 11.636-10.473 2.327-16.291 10.473-31.418 22.109-41.891 9.309-9.309 22.109-15.127 36.073-17.455a10.428 10.428 0 0010.473-10.472z"/><path d="M252.509 345.6c0-32.582 25.6-58.182 58.182-58.182 13.964 0 26.764 4.655 37.236 13.964-11.636-13.964-26.764-22.109-45.382-22.109-32.582 0-58.182 25.6-58.182 58.182 0 18.618 8.145 33.745 20.945 44.218-8.144-9.309-12.799-22.109-12.799-36.073zM337.455 373.527c-1.164 0-2.327 0-3.491-1.164-2.327-2.327-2.327-5.818 0-8.145 6.982-6.982 10.473-17.455 10.473-26.764 0-3.491 2.327-5.818 5.818-5.818 3.491 0 5.818 2.327 5.818 5.818 0 12.8-4.655 25.6-12.8 34.909-2.328 1.164-4.655 1.164-5.818 1.164z"/><path d="M302.545 372.364c-6.982 0-11.636-4.655-11.636-11.636v-46.545c0-6.982 4.655-11.636 11.636-11.636 6.982 0 11.636 4.655 11.636 11.636v46.545c.001 6.981-4.654 11.636-11.636 11.636z"/><path d="M356.073 315.345c2.327 6.982 4.655 13.964 4.655 22.109 0 32.582-25.6 58.182-58.182 58.182-3.491 0-8.145 0-11.636-1.164v1.164c0 8.145 1.164 15.127 3.491 23.273h8.145c45.382 0 81.455-36.073 81.455-81.455 0-8.145-1.164-15.127-3.491-23.273h-8.145c-5.82.001-10.474.001-16.292 1.164z"/><circle cx="360.727" cy="407.273" r="81.455"/><path d="M360.727 325.818c-45.382 0-81.455 36.073-81.455 81.455s36.073 81.455 81.455 81.455 81.455-36.073 81.455-81.455-36.073-81.455-81.455-81.455zm0 139.637c-32.582 0-58.182-25.6-58.182-58.182s25.6-58.182 58.182-58.182 58.182 25.6 58.182 58.182-25.6 58.182-58.182 58.182z"/><path d="M360.727 487.564c45.382 1.164 81.455-36.073 81.455-80.291h-1.164c-5.818 0-10.473 4.655-11.636 10.473-2.327 16.291-10.473 31.418-22.109 41.891-9.309 9.309-22.109 15.127-36.073 17.455a10.428 10.428 0 00-10.473 10.472zM360.727 326.982c-45.382-1.164-81.455 36.073-81.455 80.291h1.164c5.818 0 10.473-4.655 11.636-10.473 2.327-16.291 10.473-31.418 22.109-41.891 9.309-9.309 22.109-15.127 36.073-17.455a10.428 10.428 0 0010.473-10.472z"/><path d="M310.691 415.418c0-32.582 25.6-58.182 58.182-58.182 13.964 0 26.764 4.655 37.236 13.964-11.636-13.964-26.764-22.109-45.382-22.109-32.582 0-58.182 25.6-58.182 58.182 0 18.618 8.145 33.745 20.945 44.218-8.145-9.309-12.799-22.109-12.799-36.073zM395.636 443.345c-1.164 0-2.327 0-3.491-1.164-2.327-2.327-2.327-5.818 0-8.145 6.982-6.982 10.473-17.455 10.473-26.764 0-3.491 2.327-5.818 5.818-5.818s5.818 2.327 5.818 5.818c0 12.8-4.655 25.6-12.8 34.909-2.327 1.164-4.654 1.164-5.818 1.164z"/><path d="M360.727 442.182c-6.982 0-11.636-4.655-11.636-11.636V384c0-6.982 4.655-11.636 11.636-11.636 6.982 0 11.636 4.655 11.636 11.636v46.545c.001 6.982-4.654 11.637-11.636 11.637z"/></symbol><symbol viewBox="0 0 511.996 511.996" id="purse" xmlns="http://www.w3.org/2000/svg"><path d="M437.388 170.465L333.876 10.439c-7.32-10.844-22.045-13.702-32.889-6.382L54.448 170.465h382.94z"/><path d="M449.649 170.465L378.674 32.646c-6.554-12.727-22.184-17.73-34.909-11.176L54.448 170.465h395.201z"/><path d="M431.044 486.666H93.306c-27.522 0-49.833-22.311-49.833-49.833V166.181c0-27.522 22.311-49.833 49.833-49.833h337.738c27.522 0 49.833 22.311 49.833 49.833v270.652c0 27.522-22.311 49.833-49.833 49.833z"/><path d="M480.877 436.833V261.926h-81.174c-21.86 0-39.581 17.721-39.581 39.581 0 11.557 4.955 21.954 12.854 29.19l107.857 107.857c.02-.571.044-1.144.044-1.721z"/><path d="M480.544 341.088h-82.183c-21.86 0-39.581-17.721-39.581-39.581 0-21.86 17.721-39.581 39.581-39.581h82.183c9.076 0 16.433 7.358 16.433 16.433v46.295c.001 9.076-7.357 16.434-16.433 16.434z"/><circle cx="400.822" cy="301.508" r="25.94"/><path d="M93.306 486.666h275.565L266.457 384.252c-18.983-18.983-47.516-22.568-70.125-10.786l-17.439-17.388c-10.952-11.758-26.562-19.118-43.897-19.118-31.472 0-57.265 24.24-59.772 55.065a59.9 59.9 0 00-31.75 8.957v35.851c-.001 27.522 22.31 49.833 49.832 49.833z"/><circle cx="224.042" cy="426.667" r="59.99"/><circle cx="224.042" cy="426.667" r="57.024"/><circle cx="224.042" cy="426.667" r="44.203"/><path d="M196.851 421.8l3.343-3.307c1.034-1.023 2.416-1.648 4.146-1.874 1.73-.227 3.541-.189 5.432.113l5.688.927c1.895.309 3.707.371 5.434.189 1.726-.184 3.072-.752 4.037-1.707.964-.954 1.495-2.105 1.592-3.453.096-1.348-.457-2.631-1.663-3.851-1.024-1.035-2.141-1.592-3.349-1.672-1.209-.079-2.371.435-3.491 1.542-.365.361-.862.5-1.489.415-.627-.086-1.225-.417-1.794-.991-1.092-1.104-.961-2.327.398-3.67 1.794-1.775 3.948-2.531 6.464-2.265 2.516.265 4.729 1.363 6.641 3.296 2.025 2.047 3.108 4.424 3.249 7.131.141 2.706-.805 5.064-2.838 7.076-1.378 1.363-3.051 2.256-5.019 2.677a16.738 16.738 0 01-5.831.237c-1.92-.263-3.793-.572-5.62-.927-1.827-.354-3.502-.542-5.021-.563-1.521-.021-2.636.321-3.348 1.025l-1.309 1.294 10.037 10.145c.318.322.442.758.37 1.306-.071.549-.326 1.039-.763 1.472a2.707 2.707 0 01-1.512.783c-.571.09-1.015-.025-1.331-.344l-12.07-12.2c-.361-.365-.603-.839-.724-1.421-.116-.581-.004-1.042.341-1.383zm21.217 12.055c1.127-1.114 2.282-1.074 3.467.121 1.229 1.242 1.36 2.341.395 3.297-.966.956-1.344 2.092-1.133 3.409.21 1.317.884 2.55 2.023 3.7 2.732 2.761 5.546 2.707 8.444-.161l.656-.649c1.449-1.434 2.183-2.866 2.203-4.296.019-1.431-.619-2.8-1.917-4.112l-4.95-5.004c-1.024-1.035-1.066-2.017-.126-2.947.229-.226.564-.437 1.008-.631l10.064-8.617c.873-.728 1.549-.849 2.027-.366l10.14 10.248c.363.367.482.809.353 1.323-.13.514-.412.988-.848 1.42-.437.433-.914.71-1.429.833-.516.123-.956 0-1.319-.367l-7.887-7.971-7.171 6.14 3.039 3.071c2.344 2.369 3.629 4.831 3.856 7.383.226 2.552-.915 5.07-3.421 7.55l-.656.649c-2.6 2.572-5.214 3.76-7.845 3.562-2.63-.197-5.095-1.458-7.394-3.781-2.367-2.392-3.647-4.87-3.839-7.434-.197-2.562.558-4.686 2.26-6.37z"/><path d="M274.494 459.12l-82.906-82.906a60.187 60.187 0 00-9.97 8.036c-23.428 23.428-23.428 61.412 0 84.839 23.428 23.428 61.412 23.428 84.839 0a60.104 60.104 0 008.037-9.969z"/><circle cx="134.994" cy="396.95" r="59.99"/><circle cx="134.994" cy="396.95" r="57.024"/><circle cx="134.994" cy="396.95" r="44.203"/><path d="M111.095 406.135c.009-1.585.854-2.374 2.537-2.365 1.748.009 2.617.694 2.61 2.053s.529 2.43 1.609 3.213c1.079.782 2.428 1.178 4.047 1.187 3.883.021 5.836-2.008 5.857-6.085l.005-.923c.011-2.039-.483-3.57-1.481-4.595-.998-1.025-2.418-1.542-4.263-1.552l-7.038-.037c-1.456-.008-2.181-.673-2.173-1.994.002-.321.09-.708.266-1.16l1.024-13.21c.102-1.131.494-1.697 1.174-1.693l14.416.077c.517.003.913.232 1.186.686.272.455.408.99.405 1.604-.003.615-.145 1.148-.421 1.599-.278.453-.676.676-1.193.673l-11.214-.059-.729 9.413 4.32.023c3.332.018 5.981.849 7.947 2.494 1.965 1.645 2.938 4.232 2.919 7.757l-.005.923c-.02 3.657-1.029 6.346-3.028 8.065-2 1.721-4.633 2.572-7.902 2.555-3.366-.018-6.023-.864-7.971-2.542-1.949-1.675-2.917-3.711-2.904-6.107zm25.932-2.094l.075-14.124c.02-3.721 1.021-6.45 3.005-8.187 1.983-1.737 4.625-2.596 7.926-2.579s5.941.906 7.922 2.663c1.981 1.758 2.962 4.499 2.941 8.219l-.075 14.124c-.02 3.722-1.03 6.45-3.029 8.187-2 1.737-4.649 2.596-7.95 2.579-3.301-.018-5.934-.906-7.898-2.663-1.966-1.758-2.937-4.497-2.917-8.219zm5.145.027c-.022 4.174 1.875 6.272 5.694 6.293 1.844.01 3.271-.5 4.28-1.531 1.008-1.03 1.519-2.596 1.53-4.7l.075-14.124c.011-2.103-.482-3.675-1.48-4.716-.998-1.04-2.418-1.566-4.263-1.576-3.819-.02-5.739 2.056-5.762 6.231l-.074 14.123z"/><path d="M118.855 411.09c-10.904-11.679-26.408-19.003-43.631-19.064a60.287 60.287 0 00-.218 4.924c0 33.131 26.859 59.99 59.99 59.99a59.744 59.744 0 0024.483-5.226l-40.624-40.624z"/><circle cx="75.009" cy="452.005" r="59.99"/><circle cx="75.009" cy="452.005" r="57.024"/><circle cx="75.009" cy="452.005" r="44.203"/><path d="M69.47 479.853l-3.307-3.343c-1.023-1.034-1.648-2.416-1.874-4.146-.227-1.73-.189-3.541.113-5.432l.927-5.688c.309-1.895.371-3.707.189-5.434-.184-1.726-.752-3.072-1.707-4.037-.954-.964-2.105-1.495-3.453-1.592-1.348-.096-2.631.458-3.851 1.664-1.035 1.024-1.592 2.141-1.672 3.349-.079 1.209.435 2.371 1.542 3.491.361.365.5.862.415 1.489-.086.627-.417 1.225-.991 1.794-1.104 1.092-2.327.961-3.67-.398-1.775-1.794-2.531-3.948-2.265-6.464.265-2.516 1.363-4.729 3.296-6.641 2.047-2.025 4.424-3.108 7.13-3.249 2.706-.141 5.064.805 7.076 2.838 1.363 1.378 2.256 3.051 2.677 5.019.422 1.969.501 3.912.237 5.831a102.279 102.279 0 01-.927 5.62c-.354 1.827-.542 3.502-.563 5.021-.021 1.521.321 2.636 1.025 3.348l1.294 1.309 10.145-10.037c.322-.318.758-.442 1.306-.37.549.071 1.04.326 1.472.763.433.438.694.942.783 1.512.09.571-.025 1.015-.344 1.331l-12.2 12.07c-.365.361-.839.603-1.421.724-.58.115-1.041.004-1.382-.342zm11.762-24.068l-9.935-10.041c-2.617-2.645-3.839-5.284-3.664-7.914.174-2.63 1.435-5.107 3.781-7.428 2.346-2.322 4.842-3.561 7.485-3.719 2.643-.158 5.275 1.087 7.892 3.732l9.935 10.041c2.617 2.645 3.833 5.29 3.647 7.931-.186 2.642-1.452 5.124-3.799 7.445-2.346 2.322-4.836 3.556-7.468 3.701-2.632.148-5.256-1.102-7.874-3.748zm3.658-3.618c2.936 2.968 5.761 3.108 8.475.423 1.311-1.297 1.96-2.666 1.945-4.109-.015-1.441-.762-2.909-2.242-4.405l-9.935-10.041c-1.479-1.495-2.939-2.258-4.381-2.289-1.442-.03-2.818.602-4.129 1.899-2.715 2.685-2.603 5.513.332 8.48l9.935 10.042z"/></symbol><symbol viewBox="0 0 492.004 492.004" id="right-arrow" xmlns="http://www.w3.org/2000/svg"><path d="M382.678 226.804L163.73 7.86C158.666 2.792 151.906 0 144.698 0s-13.968 2.792-19.032 7.86l-16.124 16.12c-10.492 10.504-10.492 27.576 0 38.064L293.398 245.9l-184.06 184.06c-5.064 5.068-7.86 11.824-7.86 19.028 0 7.212 2.796 13.968 7.86 19.04l16.124 16.116c5.068 5.068 11.824 7.86 19.032 7.86s13.968-2.792 19.032-7.86L382.678 265c5.076-5.084 7.864-11.872 7.848-19.088.016-7.244-2.772-14.028-7.848-19.108z"/></symbol><symbol viewBox="0 0 512 512" id="tablet" xmlns="http://www.w3.org/2000/svg"><path d="M394.667 0H117.333C87.936 0 64 23.936 64 53.333v405.333C64 488.064 87.936 512 117.333 512h277.333C424.064 512 448 488.064 448 458.667V53.333C448 23.936 424.064 0 394.667 0zM256 480c-11.755 0-21.333-9.579-21.333-21.333s9.579-21.333 21.333-21.333 21.333 9.579 21.333 21.333S267.755 480 256 480zm149.333-64c0 5.888-4.779 10.667-10.667 10.667H117.333c-5.888 0-10.667-4.779-10.667-10.667V53.333c0-5.888 4.779-10.667 10.667-10.667h277.333c5.888 0 10.667 4.779 10.667 10.667V416z"/></symbol><symbol viewBox="0 0 18 18" id="toggles-icon-less" xmlns="http://www.w3.org/2000/svg"><path fill-rule="evenodd" d="M8.999 18.001c-4.963 0-9-4.038-9-9.002 0-4.962 4.037-9.001 9-9.001 4.964 0 9.002 4.039 9.002 9.001 0 4.964-4.038 9.002-9.002 9.002zm0-17.177C4.492.824.824 4.491.824 8.999c0 4.509 3.668 8.175 8.175 8.175 4.509 0 8.176-3.666 8.176-8.175 0-4.508-3.667-8.175-8.176-8.175zM4.064 7.9h9.871v2.199H4.064V7.9z"/></symbol><symbol viewBox="0 0 18 18" id="toggles-icon-more" xmlns="http://www.w3.org/2000/svg"><path fill-rule="evenodd" d="M8.999 18.001C4.036 18.001-.002 13.963-.002 9c0-4.964 4.038-9.002 9.001-9.002 4.964 0 9.003 4.038 9.003 9.002 0 4.963-4.039 9.001-9.003 9.001zm0-17.178C4.491.823.824 4.491.824 9c0 4.507 3.667 8.175 8.175 8.175 4.509 0 8.177-3.668 8.177-8.175 0-4.509-3.668-8.177-8.177-8.177zm1.1 13.113H7.9v-3.837H4.064V7.9H7.9V4.064h2.199V7.9h3.835v2.199h-3.835v3.837z"/></symbol><symbol viewBox="0 0 18 15" id="twitter" xmlns="http://www.w3.org/2000/svg"><path fill-rule="evenodd" d="M17.726 2.532a7.434 7.434 0 01-2.088.564 3.599 3.599 0 001.598-1.975 7.382 7.382 0 01-2.307.866A3.658 3.658 0 0012.276.86c-2.008 0-3.635 1.597-3.635 3.569 0 .277.032.551.094.812a10.384 10.384 0 01-7.492-3.728 3.498 3.498 0 00-.492 1.794 3.55 3.55 0 001.617 2.969 3.654 3.654 0 01-1.646-.447l-.001.046c0 1.729 1.253 3.17 2.916 3.498a3.684 3.684 0 01-1.642.06c.463 1.419 1.805 2.45 3.396 2.478a7.376 7.376 0 01-4.514 1.528c-.294 0-.583-.016-.867-.05a10.429 10.429 0 005.571 1.603c6.686 0 10.341-5.437 10.341-10.15 0-.156-.003-.31-.009-.462a7.336 7.336 0 001.813-1.848z"/></symbol></svg>