<?xml version="1.0" encoding="iso-8859-1"?>
<!-- Generator: Adobe Illustrator 19.0.0, SVG Export Plug-In . SVG Version: 6.00 Build 0)  -->
<svg version="1.1" id="Capa_1" xmlns="http://www.w3.org/2000/svg" xmlns:xlink="http://www.w3.org/1999/xlink" x="0px" y="0px"
	 viewBox="0 0 432.858 432.858" style="enable-background:new 0 0 432.858 432.858;" xml:space="preserve">
<g>
	<circle style="fill:#FFE600;" cx="114.029" cy="108.5" r="95.573"/>
	<path style="fill:#FFE600;" d="M114.029,210.906c-56.463,0-102.4-45.933-102.4-102.4s45.937-102.4,102.4-102.4
		s102.4,45.933,102.4,102.4S170.493,210.906,114.029,210.906z M114.029,19.76c-48.937,0-88.747,39.813-88.747,88.747
		s39.81,88.747,88.747,88.747s88.747-39.813,88.747-88.747S162.966,19.76,114.029,19.76z"/>
</g>
<circle style="fill:#00E7FF;" cx="114.029" cy="108.5" r="68.267"/>
<g>
	<path style="fill:#602F75;" d="M114.029,183.6c-41.407,0-75.093-33.686-75.093-75.093s33.686-75.093,75.093-75.093
		s75.093,33.686,75.093,75.093S155.436,183.6,114.029,183.6z M114.029,47.066c-33.877,0-61.44,27.559-61.44,61.44
		s27.563,61.44,61.44,61.44s61.44-27.559,61.44-61.44S147.907,47.066,114.029,47.066z"/>
	<path style="fill:#602F75;" d="M132.05,139.465c-3.173,2.147-8.497,4.301-15.256,4.301c-8.293,0-15.667-3.173-20.784-9.114
		c-3.893-4.301-6.453-10.24-7.373-17.613h-6.352v-5.014h5.837c0-0.514,0-1.027,0-1.539c0-1.64,0.104-3.173,0.207-4.606h-6.043v-5.12
		h6.76c1.227-7.166,4.301-13.107,8.397-17.307c5.221-5.427,11.877-8.499,20.273-8.499c6.04,0,10.75,1.746,13.617,3.28l-2.046,6.76
		c-2.56-1.539-6.861-2.867-11.467-2.867c-5.53,0-10.037,1.94-13.517,5.627c-3.074,2.973-5.12,7.579-6.144,13.007h28.566v5.12H97.236
		c-0.104,1.333-0.203,2.867-0.203,4.301c0,0.613,0,1.126,0,1.847h29.693v5.014H97.749c0.817,5.939,2.867,10.341,5.63,13.413
		c3.791,3.994,8.911,5.939,14.44,5.939c5.427,0,10.136-2.046,12.489-3.379L132.05,139.465z"/>
	<rect x="107.203" y="40.24" style="fill:#602F75;" width="13.653" height="13.653"/>
	<rect x="107.203" y="163.113" style="fill:#602F75;" width="13.653" height="13.653"/>
	<rect x="161.816" y="101.673" style="fill:#602F75;" width="20.48" height="13.653"/>
	<rect x="45.763" y="101.673" style="fill:#602F75;" width="20.48" height="13.653"/>
</g>
<g>
	<circle style="fill:#FFE600;" cx="318.829" cy="306.473" r="95.573"/>
	<path style="fill:#FFE600;" d="M318.829,408.88c-56.463,0-102.4-45.933-102.4-102.4s45.937-102.4,102.4-102.4
		s102.4,45.933,102.4,102.4S375.293,408.88,318.829,408.88z M318.829,217.733c-48.937,0-88.747,39.813-88.747,88.747
		s39.81,88.747,88.747,88.747s88.747-39.813,88.747-88.747S367.766,217.733,318.829,217.733z"/>
</g>
<circle style="fill:#00E7FF;" cx="318.829" cy="306.473" r="68.267"/>
<g>
	<path style="fill:#602F75;" d="M318.829,381.573c-41.407,0-75.093-33.686-75.093-75.093s33.686-75.093,75.093-75.093
		s75.093,33.686,75.093,75.093S360.236,381.573,318.829,381.573z M318.829,245.04c-33.877,0-61.44,27.559-61.44,61.44
		s27.563,61.44,61.44,61.44s61.44-27.559,61.44-61.44S352.707,245.04,318.829,245.04z"/>
	<rect x="312.003" y="238.206" style="fill:#602F75;" width="13.653" height="13.653"/>
	<rect x="312.003" y="361.086" style="fill:#602F75;" width="13.653" height="13.653"/>
	<rect x="366.616" y="299.646" style="fill:#602F75;" width="20.48" height="13.653"/>
	<rect x="250.563" y="299.646" style="fill:#602F75;" width="20.48" height="13.653"/>
	<path style="fill:#602F75;" d="M315.213,349.42v-10.341c-5.939-0.106-12.083-1.947-15.667-4.507l2.456-6.861
		c3.686,2.454,9.01,4.4,14.744,4.4c7.27,0,12.187-4.2,12.187-10.033c0-5.634-3.994-9.114-11.57-12.187
		c-10.447-4.093-16.896-8.806-16.896-17.714c0-8.499,6.043-14.947,15.464-16.486v-10.341h6.347v9.933
		c6.144,0.2,10.344,1.84,13.314,3.581l-2.56,6.76c-2.15-1.227-6.35-3.48-12.904-3.48c-7.883,0-10.853,4.707-10.853,8.806
		c0,5.32,3.79,7.987,12.696,11.674c10.547,4.301,15.874,9.62,15.874,18.734c0,8.093-5.634,15.667-16.179,17.413v10.646h-6.453
		V349.42z"/>
</g>
<g>
	<path style="fill:#EA3457;" d="M400.749,210.906h-13.653c0-90.687-67.874-166.533-157.88-176.42l1.493-13.573
		C327.646,31.567,400.749,113.246,400.749,210.906z"/>
	<path style="fill:#EA3457;" d="M209.603,402.053c-105.4,0-191.147-85.746-191.147-191.147h13.653
		c0,97.874,79.623,177.493,177.493,177.493V402.053z"/>
	<polygon style="fill:#EA3457;" points="244.883,71.332 213.286,23.939 261.163,0 267.269,12.213 233.226,29.232 256.242,63.759 	
		"/>
	<polygon style="fill:#EA3457;" points="191.365,432.858 180.82,424.192 207.165,392.132 174.99,371.799 182.282,360.252 
		227.533,388.852 	"/>
</g>
<g>
</g>
<g>
</g>
<g>
</g>
<g>
</g>
<g>
</g>
<g>
</g>
<g>
</g>
<g>
</g>
<g>
</g>
<g>
</g>
<g>
</g>
<g>
</g>
<g>
</g>
<g>
</g>
<g>
</g>
</svg>
