<svg id="Layer_1" enable-background="new 0 0 512 512" height="512" viewBox="0 0 512 512" width="512" xmlns="http://www.w3.org/2000/svg"><g><g clip-rule="evenodd" fill-rule="evenodd"><path d="m267.792 473.222h145.589c3.316 0 6.01-2.692 6.01-5.982 0-142.244 0-284.46 0-426.704 0-22.393-18.142-40.536-40.536-40.536h-111.063z" fill="#ffd064"/><path d="m61.201 76.083 311.645 4.989c3.77.057 6.009 1.53 6.009 6.01v418.938c0 3.288-2.693 5.98-6.009 5.98h-305.636c-3.316 0-6.009-2.692-6.009-5.98z" fill="#fff6cf"/><path d="m342.854 81.072h29.991c3.77 0 6.009 1.53 6.009 6.01v418.938c0 3.288-2.693 5.98-6.009 5.98h-29.991c3.288 0 5.981-2.692 5.981-5.98v-418.938c0-4.479-2.239-6.01-5.981-6.01z" fill="#fff0af"/><path d="m61.201 81.072c-22.394 0-40.536-18.143-40.536-40.536s18.142-40.536 40.536-40.536h317.654c-22.394 0-40.536 18.143-40.536 40.536 0 22.394 12.132 40.536 34.527 40.536z" fill="#fff0af"/><path d="m348.835 0h30.02c-22.394 0-40.536 18.143-40.536 40.536 0 22.394 12.132 40.536 34.527 40.536h-29.991c-22.394 0-34.555-18.143-34.555-40.536s18.17-40.536 40.535-40.536z" fill="#ffe07d"/><path d="m150.38 388.38h297.414v53.349h-297.414z" fill="#dd636e"/><path d="m479.345 441.728h-36.567v-53.348h36.567c6.604 0 11.991 5.414 11.991 12.02v29.338c-.001 6.605-5.387 11.99-11.991 11.99z" fill="#9dc6fb"/><path d="m479.345 441.728h-25.002c6.604 0 11.99-5.386 11.99-11.991v-29.338c0-6.605-5.386-12.02-11.99-12.02h25.002c6.604 0 11.991 5.414 11.991 12.02v29.338c-.001 6.606-5.387 11.991-11.991 11.991z" fill="#80b4fb"/><path d="m108.256 418.059c-2.778-1.559-2.834-4.422 0-6.009l42.124-23.67v53.349z" fill="#da4a54"/></g><path d="m102.927 287.408h51.818c4.139 0 7.484 3.346 7.484 7.483v51.847c0 4.139-3.345 7.483-7.484 7.483h-51.818c-4.139 0-7.512-3.345-7.512-7.483v-51.847c.001-4.137 3.374-7.483 7.512-7.483zm44.306 14.996h-36.823v36.822h36.823zm-44.306-101.056h51.818c4.139 0 7.484 3.345 7.484 7.512v51.818c0 4.139-3.345 7.483-7.484 7.483h-51.818c-4.139 0-7.512-3.345-7.512-7.483v-51.818c.001-4.168 3.374-7.512 7.512-7.512zm44.306 14.995h-36.823v36.823h36.823zm-44.306-101.057h51.818c4.139 0 7.484 3.374 7.484 7.513v51.817c0 4.139-3.345 7.512-7.484 7.512h-51.818c-4.139 0-7.512-3.373-7.512-7.512v-51.817c.001-4.139 3.374-7.513 7.512-7.513zm44.306 14.996h-36.823v36.822h36.823z" fill="#64aa91"/><path d="m186.153 312.666c-4.139 0-7.512-3.346-7.512-7.484 0-4.139 3.373-7.512 7.512-7.512h161.294c4.139 0 7.483 3.373 7.483 7.512s-3.345 7.484-7.483 7.484zm0-172.094c-4.139 0-7.512-3.373-7.512-7.512s3.373-7.512 7.512-7.512h161.294c4.139 0 7.483 3.373 7.483 7.512s-3.345 7.512-7.483 7.512zm0 31.267c-4.139 0-7.512-3.345-7.512-7.483 0-4.139 3.373-7.512 7.512-7.512h118.518c4.139 0 7.512 3.373 7.512 7.512s-3.373 7.483-7.512 7.483zm0 54.766c-4.139 0-7.512-3.345-7.512-7.483 0-4.139 3.373-7.512 7.512-7.512h161.294c4.139 0 7.483 3.373 7.483 7.512s-3.345 7.483-7.483 7.483zm0 31.294c-4.139 0-7.512-3.345-7.512-7.512 0-4.139 3.373-7.483 7.512-7.483h118.518c4.139 0 7.512 3.345 7.512 7.483 0 4.167-3.373 7.512-7.512 7.512zm0 86.061c-4.139 0-7.512-3.373-7.512-7.512s3.373-7.483 7.512-7.483h118.518c4.139 0 7.512 3.345 7.512 7.483 0 4.139-3.373 7.512-7.512 7.512z" fill="#407093"/><path clip-rule="evenodd" d="m412.786 388.38h29.991v53.349h-29.991z" fill="#dd636e" fill-rule="evenodd"/></g></svg>