<svg
 xmlns="http://www.w3.org/2000/svg"
 xmlns:xlink="http://www.w3.org/1999/xlink"
 width="18px" height="15px">
<path fill-rule="evenodd"  fill="rgb(255, 0, 54)"
 d="M17.726,2.532 C17.074,2.817 16.373,3.007 15.638,3.096 C16.388,2.654 16.965,1.953 17.236,1.121 C16.534,1.530 15.756,1.826 14.929,1.987 C14.265,1.292 13.321,0.860 12.276,0.860 C10.268,0.860 8.641,2.457 8.641,4.429 C8.641,4.706 8.673,4.980 8.735,5.241 C5.714,5.092 3.036,3.672 1.243,1.513 C0.930,2.040 0.751,2.652 0.751,3.307 C0.751,4.544 1.393,5.636 2.368,6.276 C1.772,6.258 1.212,6.097 0.722,5.829 C0.721,5.843 0.721,5.859 0.721,5.875 C0.721,7.604 1.974,9.045 3.637,9.373 C3.332,9.455 3.011,9.497 2.679,9.497 C2.445,9.497 2.217,9.476 1.995,9.433 C2.458,10.852 3.800,11.883 5.391,11.911 C4.147,12.869 2.579,13.439 0.877,13.439 C0.583,13.439 0.294,13.423 0.010,13.389 C1.618,14.401 3.529,14.992 5.581,14.992 C12.267,14.992 15.922,9.555 15.922,4.842 C15.922,4.686 15.919,4.532 15.913,4.380 C16.623,3.876 17.238,3.248 17.726,2.532 Z"/>
</svg>