<svg
 xmlns="http://www.w3.org/2000/svg"
 xmlns:xlink="http://www.w3.org/1999/xlink"
 width="15px" height="15px">
<path fill-rule="evenodd"  fill="rgb(255, 0, 54)"
 d="M12.951,2.684 L12.951,4.710 L12.272,4.710 L12.272,2.684 L10.230,2.684 L10.230,2.020 L12.272,2.020 L12.272,-0.002 L12.951,-0.002 L12.951,2.020 L14.996,2.020 L14.996,2.684 L12.951,2.684 ZM7.738,0.955 C8.526,1.397 8.944,2.309 8.944,3.315 C8.944,4.238 8.424,4.981 7.689,5.546 C6.971,6.098 6.835,6.328 6.835,6.797 C6.835,7.196 7.692,7.791 8.087,8.081 C9.459,9.093 9.718,9.730 9.737,10.993 C9.762,12.675 8.006,14.140 5.191,14.140 C2.721,14.140 0.651,13.037 0.651,11.458 C0.651,9.074 2.365,8.304 4.835,8.304 C5.105,8.304 5.351,8.297 5.606,8.297 C5.268,7.976 4.995,7.696 4.995,7.210 C4.995,6.918 5.089,6.642 5.221,6.395 C5.087,6.404 4.950,6.413 4.809,6.413 C2.780,6.413 1.599,5.012 1.599,3.256 C1.599,1.537 3.397,-0.004 5.553,-0.004 C6.665,-0.004 9.804,-0.004 9.804,-0.004 L8.854,0.955 L7.738,0.955 ZM5.250,9.414 C3.678,9.414 2.379,9.993 2.379,11.087 C2.379,12.199 3.538,13.106 5.142,13.106 C7.398,13.106 8.184,12.258 8.184,11.141 C8.184,11.008 8.180,10.872 8.133,10.748 C7.588,9.414 5.835,9.414 5.250,9.414 ZM7.155,3.485 C6.968,2.090 6.260,1.040 5.173,1.007 C4.086,0.977 3.133,1.949 3.322,3.345 C3.509,4.742 4.543,5.678 5.631,5.711 C6.718,5.742 7.342,4.882 7.155,3.485 Z"/>
</svg>