<?xml version="1.0" encoding="iso-8859-1"?>
<!-- Generator: Adobe Illustrator 19.0.0, SVG Export Plug-In . SVG Version: 6.00 Build 0)  -->
<svg version="1.1" id="Capa_1" xmlns="http://www.w3.org/2000/svg" xmlns:xlink="http://www.w3.org/1999/xlink" x="0px" y="0px"
	 viewBox="0 0 512.001 512.001" style="enable-background:new 0 0 512.001 512.001;" xml:space="preserve">
<rect x="240.996" y="76.709" style="fill:#33BC00;" width="29.999" height="159.867"/>
<rect x="255.996" y="76.709" style="fill:#00AC00;" width="15" height="159.867"/>
<path style="fill:#66CC00;" d="M412.643,25.616c-1.834-1.486-45.526-36.246-97.435-22.339
	c-28.659,7.679-47.729,26.955-59.207,43.053c-11.478-16.098-30.547-35.374-59.207-43.053c-51.903-13.906-95.6,20.853-97.435,22.339
	l-8.463,6.857l3.901,10.17c0.845,2.205,21.308,54.155,73.212,68.063c8.624,2.311,17.017,3.278,25.033,3.278
	c27.604,0,50.69-11.475,62.959-19.08c12.268,7.604,35.352,19.08,62.96,19.08c8.013,0,16.413-0.968,25.033-3.278
	c51.904-13.908,72.367-65.858,73.212-68.063l3.901-10.17L412.643,25.616z"/>
<path style="fill:#33BC00;" d="M412.643,25.616c-1.834-1.486-45.526-36.246-97.435-22.339
	c-28.659,7.679-47.729,26.955-59.207,43.053c0,13.056-0.001,28.23-0.001,48.573c12.268,7.604,35.352,19.08,62.96,19.08
	c8.013,0,16.413-0.968,25.033-3.278c51.904-13.908,72.367-65.858,73.212-68.063l3.901-10.17L412.643,25.616z"/>
<path style="fill:#FFDB0C;" d="M256.001,512.001c-80.22,0-145.483-65.264-145.483-145.483s65.264-145.483,145.483-145.483
	s145.483,65.264,145.483,145.483S336.221,512.001,256.001,512.001z"/>
<path style="fill:#FBBF00;" d="M256.001,512.001c0-12.834,0-270.229,0-290.966c80.22,0,145.483,65.264,145.483,145.483
	S336.221,512.001,256.001,512.001z"/>
<path style="fill:#FFA900;" d="M311.212,394.607c0-25.572-16.66-34.483-43.006-41.65c-18.404-5.036-28.671-7.555-28.671-16.854
	c0-7.555,6.006-11.43,16.854-11.43c16.467,0,34.87,11.043,36.807,13.174l13.754-26.346c-8.548-5.101-20.144-10.579-33.168-13.323
	v-27.972h-35.562v28.973c-18.348,5.693-31.617,20.01-31.617,41.961c0,20.729,11.817,30.22,37.194,37.969
	c18.985,5.811,33.126,8.33,33.126,18.598c0,6.586-5.424,10.267-16.854,10.267c-21.116,0-42.813-13.367-45.331-16.079l-13.949,27.702
	c10.661,6.98,23.902,12.115,37.429,14.838v28.395h35.562v-27.339C294.404,431.985,311.212,420.085,311.212,394.607z"/>
<g>
	<path style="fill:#FF8800;" d="M256.389,324.673c16.467,0,34.87,11.043,36.807,13.174l13.754-26.346
		c-8.548-5.101-20.144-10.579-33.168-13.323v-27.972h-17.781v54.477C256.132,324.68,256.256,324.673,256.389,324.673z"/>
	<path style="fill:#FF8800;" d="M268.206,352.956c-4.585-1.255-8.663-2.353-12.205-3.439v33.21
		c12.529,3.759,20.923,7.071,20.923,14.979c0,6.586-5.424,10.267-16.854,10.267c-1.356,0-2.714-0.057-4.069-0.161v55.017h17.781
		v-27.339c20.623-3.505,37.43-15.406,37.43-40.884C311.212,369.035,294.552,360.124,268.206,352.956z"/>
</g>
<g>
</g>
<g>
</g>
<g>
</g>
<g>
</g>
<g>
</g>
<g>
</g>
<g>
</g>
<g>
</g>
<g>
</g>
<g>
</g>
<g>
</g>
<g>
</g>
<g>
</g>
<g>
</g>
<g>
</g>
</svg>
