<svg height="512pt" viewBox="-91 0 512 512" width="512pt" xmlns="http://www.w3.org/2000/svg"><path d="m210 309.898438v20.101562l-3 117.597656h-76.5l-10.5-117.597656v-20.101562zm0 0" fill="#ffbd86"/><path d="m210 309.898438v20.101562l-3 117.597656h-42v-137.699218zm0 0" fill="#f6a96c"/><path d="m330 405v107h-330v-107c0-41.398438 33.601562-75 75-75h45l10.5 117.597656h76.5l3-117.597656h45c41.398438 0 75 33.601562 75 75zm0 0" fill="#00aadf"/><path d="m330 405v107h-165v-64.402344h42l3-117.597656h45c41.398438 0 75 33.601562 75 75zm0 0" fill="#007a9f"/><path d="m278.101562 406.800781-113.101562 105.199219-113.101562-105.199219 68.101562-76.800781 45 90 45-90zm0 0" fill="#deecf1"/><path d="m278.101562 406.800781-113.101562 105.199219v-92l45-90zm0 0" fill="#c5d3dd"/><path d="m270 135v84.898438c0 57.601562-44.699219 107.101562-99.300781 110.101562h-5.699219c-27 0-52.5-9.902344-72.300781-28.800781-20.699219-19.800781-32.699219-47.398438-32.699219-76.199219v-90zm0 0" fill="#fed2a4"/><path d="m165 135h105v84.898438c0 57.601562-44.699219 107.101562-99.300781 110.101562h-5.699219zm0 0" fill="#ffbd86"/><path d="m330 60c0 22.5-24.902344 40.199219-71.699219 50.699219h-186.601562c-46.796875-10.5-71.699219-28.199219-71.699219-50.699219 0-41.101562 85.5-60 165-60s165 18.898438 165 60zm0 0" fill="#00aadf"/><path d="m330 60c0 22.5-24.902344 40.199219-71.699219 50.699219h-93.300781v-110.699219c79.5 0 165 18.898438 165 60zm0 0" fill="#007a9f"/><path d="m270 105v15l-38.402344 30h-122.996094l-48.601562-30v-15c0-24.902344 20.097656-45 45-45h120c24.902344 0 45 20.097656 45 45zm0 0" fill="#fbc56d"/><path d="m270 105v15l-38.402344 30h-66.597656v-90h60c24.902344 0 45 20.097656 45 45zm0 0" fill="#ebae56"/><path d="m205.5 265.5c-11.101562 11.398438-25.800781 16.800781-40.5 16.800781s-29.398438-5.402343-40.5-16.800781l21-21c5.402344 5.101562 12.300781 7.800781 19.5 7.800781s14.101562-2.699219 19.503906-7.800781zm0 0" fill="#e63950"/><path d="m60 120v15c0 41.398438 33.601562 75 75 75h60c20.097656 0 39-7.800781 52.800781-21.902344 14.398438-14.097656 22.199219-32.699218 22.199219-53.097656v-15zm0 0" fill="#00aadf"/><path d="m184.5 244.5 21 21c-11.101562 11.398438-25.800781 16.800781-40.5 16.800781v-30c7.199219 0 14.097656-2.699219 19.5-7.800781zm0 0" fill="#ae2538"/><path d="m270 120v15c0 20.398438-7.800781 39-22.199219 53.097656-13.800781 14.101563-32.703125 21.902344-52.800781 21.902344h-30v-90zm0 0" fill="#007a9f"/></svg>